<?xml version="1.0" encoding="iso-8859-1"?>
<!-- Generator: Adobe Illustrator 18.1.1, SVG Export Plug-In . SVG Version: 6.00 Build 0)  -->
<!DOCTYPE svg PUBLIC "-//W3C//DTD SVG 1.1//EN" "http://www.w3.org/Graphics/SVG/1.1/DTD/svg11.dtd">
<svg version="1.1" id="Capa_1" xmlns="http://www.w3.org/2000/svg" x="0px" y="0px"
     viewBox="0 0 100 100" style="enable-background:new 0 0 100 100;" xml:space="preserve">
<path style="fill:#030104;" d="M62.162,0c6.696,0,10.043,4.567,10.043,9.789c0,6.522-5.814,12.555-13.391,12.555
	c-6.344,0-10.045-3.752-9.869-9.947C48.945,7.176,53.35,0,62.162,0z M41.543,100c-5.287,0-9.164-3.262-5.463-17.615l6.07-25.457
	c1.057-4.077,1.23-5.707,0-5.707c-1.588,0-8.451,2.816-12.51,5.59L27,52.406C39.863,41.48,54.662,35.072,61.004,35.072
	c5.285,0,6.168,6.361,3.525,16.148L57.58,77.98c-1.234,4.729-0.703,6.359,0.527,6.359c1.586,0,6.787-1.963,11.896-6.041L73,82.377
	C60.488,95.1,46.83,100,41.543,100z"/>
</svg>
